<?xml version="1.0" encoding="UTF-8"?> <!-- Generator: Adobe Illustrator 24.2.1, SVG Export Plug-In . SVG Version: 6.00 Build 0) --> <svg xmlns="http://www.w3.org/2000/svg" xmlns:xlink="http://www.w3.org/1999/xlink" version="1.1" id="Layer_1" x="0px" y="0px" viewBox="0 0 540 540" style="enable-background:new 0 0 540 540;" xml:space="preserve"> <g> <circle style="fill:#DCF2F4;" cx="331.39" cy="148.16" r="72.69"></circle> <path style="fill:#DCF2F4;" d="M137.72,415.58c0,0,34.49-2.12,72.16,35.55s60.49,65.8,109.84,57.84s87.55-35.02,98.16-123.1 L137.72,415.58z"></path> <path style="fill:#51BECA;" d="M290.77,125.21c-8.14,1.29-16.42,1.45-24.62,0.6c-9.01-0.93-22.08-0.08-32.39,9.61 c-17.51,16.45-29.18,31.84-52.53,31.31c-21.73-0.49-111.49-5.12-102,58.41c1.31,8.74-2.54,17.48-10.05,22.13 c-10.11,6.26-21.7,16.88-19.54,31.95c3.71,26-10.08,29.71-20.16,33.96c-10.08,4.24-36.61,20.16-27.59,53.59 s37.14,60.49,119.92,55.18c82.78-5.31,126.29,22.82,188.37,15.39c62.08-7.43,69.51-45.63,100.29-45.1s84.37,23.88,109.31,1.06 c24.94-22.82,32.37-65.8-10.08-96.57s-2.12-84.37-73.22-96.04C368.66,189.56,381.43,110.89,290.77,125.21z"></path> <path style="fill:#FFFFFF;" d="M170.89,309.24l3.22,2.94c0.07,0.07,0.16,0.11,0.25,0.12l4.29,0.74c0.39,0.07,0.55,0.54,0.29,0.84 L176,317.1c-0.07,0.07-0.11,0.16-0.12,0.25l-0.74,4.29c-0.07,0.39-0.54,0.55-0.84,0.29l-3.22-2.94c-0.07-0.07-0.16-0.11-0.25-0.12 l-4.29-0.74c-0.39-0.07-0.55-0.54-0.29-0.84l2.94-3.22c0.07-0.07,0.11-0.16,0.12-0.25l0.74-4.29 C170.13,309.13,170.6,308.97,170.89,309.24z"></path> <path style="fill:#FFFFFF;" d="M373.14,334.31c-1.88,0-3.64-0.73-4.97-2.05c-1.33-1.33-2.06-3.09-2.07-4.97 c0-3.88,3.15-7.04,7.02-7.04c0,0,0.01,0,0.01,0c1.88,0,3.64,0.73,4.97,2.05c1.33,1.33,2.06,3.09,2.07,4.97 c0,1.88-0.73,3.65-2.05,4.97C376.79,333.58,375.02,334.31,373.14,334.31C373.14,334.31,373.14,334.31,373.14,334.31z M373.14,321.63C373.13,321.63,373.13,321.63,373.14,321.63c-1.52,0-2.94,0.59-4,1.66c-1.07,1.07-1.65,2.49-1.65,4 s0.59,2.93,1.66,4c1.07,1.07,2.49,1.65,3.99,1.65c0,0,0,0,0.01,0c1.51,0,2.93-0.59,4-1.66c1.07-1.07,1.65-2.49,1.65-4 c0-1.51-0.59-2.93-1.66-4C376.06,322.21,374.64,321.63,373.14,321.63z"></path> <path style="fill:#FFFFFF;" d="M401.31,301.63c-0.71,0-1.42-0.23-2.01-0.67l-13.63-10.22c-0.99-0.74-1.49-1.96-1.3-3.19 c0.19-1.22,1.03-2.24,2.19-2.65l14.42-5.11c0,0,0,0,0,0c1.06-0.37,2.22-0.2,3.12,0.47c0.9,0.67,1.4,1.74,1.34,2.86l-0.78,15.32 c-0.06,1.24-0.8,2.34-1.92,2.86C402.28,301.53,401.8,301.63,401.31,301.63z M401.76,282.01l-14.42,5.11 c-0.51,0.18-0.63,0.62-0.66,0.8c-0.03,0.18-0.04,0.63,0.39,0.96l13.63,10.22c0.44,0.33,0.87,0.18,1.03,0.11 c0.16-0.08,0.55-0.32,0.58-0.86l0.78-15.32c0.02-0.34-0.13-0.65-0.4-0.86C402.43,281.95,402.09,281.9,401.76,282.01L401.76,282.01z "></path> <circle style="fill:#E95540;" cx="251.67" cy="61.19" r="31.52"></circle> <path style="fill:#FFFFFF;" d="M258.04,51.86l-6.43,3.81l-3.47-5.85c-0.68-1.15-2.16-1.52-3.3-0.84c-1.15,0.68-1.52,2.16-0.84,3.3 l3.47,5.85l-6.08,3.61c-1.15,0.68-1.52,2.16-0.84,3.3c0.68,1.15,2.16,1.52,3.3,0.84l6.08-3.61l3.95,6.66 c0.68,1.15,2.16,1.52,3.3,0.84c1.15-0.68,1.52-2.16,0.84-3.3l-3.95-6.66l6.43-3.81c1.15-0.68,1.52-2.16,0.84-3.3 C260.67,51.56,259.19,51.18,258.04,51.86z"></path> <path style="fill:#FFC969;" d="M272.79,172.67c-0.49,0.74-1.24,1.3-2.16,1.53c-1.96,0.49-3.95-0.7-4.44-2.67l-3.46-13.87 c-0.49-1.96,0.7-3.95,2.67-4.44c1.96-0.49,3.95,0.7,4.44,2.67l3.46,13.87C273.55,170.8,273.34,171.85,272.79,172.67z"></path> <path style="fill:#FFC969;" d="M318.97,173.68c-0.77,0.43-1.69,0.59-2.62,0.38c-1.97-0.45-3.2-2.42-2.74-4.39l3.22-13.93 c0.46-1.97,2.42-3.2,4.39-2.74c1.97,0.45,3.2,2.42,2.74,4.39l-3.22,13.93C320.5,172.35,319.83,173.19,318.97,173.68z"></path> <path style="fill:#FFC969;" d="M355.17,190.07c-0.88-0.07-1.74-0.45-2.39-1.15c-1.38-1.47-1.31-3.79,0.17-5.17l10.43-9.78 c1.48-1.38,3.79-1.31,5.17,0.17c1.38,1.47,1.31,3.79-0.17,5.17l-10.43,9.78C357.18,189.83,356.16,190.15,355.17,190.07z"></path> <g> <g> <path style="fill:#F8C7C4;" d="M440.85,107.72l-63.89,37.95c-17.05,10.12-22.66,32.15-12.53,49.2l0,0 c10.12,17.05,32.15,22.66,49.2,12.53l29.25-17.37l-0.02-0.06c0,0,3.13-2.09,7.92-4.39c1.05-0.5,2.1,0.69,1.46,1.67l-5.25,8.02 l0.35,6.63c0.09,1.79,2.43,2.4,3.39,0.89l17.03-26.8c0.49-0.78,1.16-1.42,1.95-1.89l7.81-4.64 c17.05-10.12,22.66-32.15,12.53-49.2l0,0C479.93,103.2,457.9,97.59,440.85,107.72z"></path> <path style="fill:#E95540;" d="M450.77,185.58c-4.79,2.3-7.92,4.39-7.92,4.39l0.02,0.06l1.45-0.86c1.03-0.61,2.35,0.09,2.41,1.29 l0.25,4.81l5.25-8.02C452.88,186.27,451.82,185.07,450.77,185.58z"></path> </g> <g> <path style="fill:#E95540;" d="M456.72,154.47c-0.11,0.1-0.24,0.19-0.37,0.27l-43.88,25.96c-1.16,0.69-2.66,0.3-3.34-0.86 c-0.69-1.16-0.31-2.66,0.86-3.34l43.89-25.96c1.16-0.69,2.66-0.3,3.34,0.86C457.82,152.42,457.59,153.71,456.72,154.47z"></path> <path style="fill:#E95540;" d="M447.26,138.53c-0.11,0.1-0.24,0.19-0.37,0.27L403,164.76c-1.16,0.69-2.66,0.3-3.34-0.86 c-0.69-1.16-0.31-2.66,0.86-3.34l43.89-25.96c1.16-0.69,2.66-0.3,3.34,0.86C448.35,136.48,448.12,137.77,447.26,138.53z"></path> </g> </g> <g> <path style="fill:#F8C7C4;" d="M125.73,209.5L6.12,267.66c-7.49,3.64-8.28,14-1.42,18.73l115.08,79.42 c7.08,4.89,16.77,0.01,17.05-8.59l4.53-137.58C141.63,211.45,133.1,205.91,125.73,209.5z"></path> <path style="fill:#FFFFFF;" d="M72.6,274.59c-0.75-0.55-1.29-1.39-1.44-2.39l-2.89-19.37c-0.14-0.96,0.1-1.93,0.67-2.7 c0.57-0.78,1.43-1.29,2.39-1.44l20.04-2.99c1.99-0.3,3.84,1.07,4.14,3.06s-1.07,3.84-3.06,4.14l-16.44,2.45l2.35,15.77 c0.3,1.99-1.07,3.84-3.06,4.14C74.31,275.42,73.35,275.15,72.6,274.59z"></path> <path style="fill:#FFFFFF;" d="M84.74,277.75c-0.41-0.3-0.75-0.72-0.97-1.24c-0.85-1.93,0.11-4.57,2.14-5.89l19.6-12.83 c2.03-1.33,4.36-0.84,5.21,1.08c0.85,1.93-0.11,4.57-2.14,5.89l-19.6,12.83C87.49,278.57,85.84,278.57,84.74,277.75z"></path> <path style="fill:#FFFFFF;" d="M101.35,294.41c-0.75-0.55-1.29-1.39-1.44-2.39c-0.3-1.99,1.07-3.84,3.06-4.14l15.77-2.36 l-2.45-16.44c-0.3-1.99,1.07-3.84,3.06-4.14c1.99-0.3,3.84,1.07,4.14,3.06l2.99,20.04c0.14,0.96-0.1,1.93-0.67,2.7 c-0.57,0.78-1.43,1.29-2.39,1.44l-19.37,2.89C103.06,295.24,102.1,294.97,101.35,294.41z"></path> <path style="fill:#51BECA;" d="M99.87,312.23c-0.96-1.45-1.03-3.39-0.03-4.95c1.35-2.1,4.15-2.71,6.25-1.36l25.11,16.17 c2.1,1.35,2.71,4.15,1.36,6.25c-1.35,2.1-4.15,2.71-6.25,1.36l-25.11-16.17C100.65,313.19,100.21,312.74,99.87,312.23z"></path> <path style="fill:#FFFFFF;" d="M60.98,287.2c-0.96-1.45-1.03-3.39-0.03-4.95c1.35-2.1,4.15-2.71,6.25-1.36l26.3,16.93 c2.1,1.35,2.71,4.15,1.36,6.25c-1.35,2.1-4.15,2.71-6.25,1.36l-26.3-16.93C61.76,288.15,61.31,287.71,60.98,287.2z"></path> <path style="fill:#7F76CF;" d="M30.63,267.66c-0.96-1.45-1.03-3.39-0.03-4.95c1.35-2.1,4.15-2.71,6.25-1.36l18.47,11.89 c2.1,1.35,2.71,4.15,1.36,6.25c-1.35,2.1-4.15,2.71-6.25,1.36l-18.47-11.89C31.41,268.62,30.96,268.17,30.63,267.66z"></path> <path style="fill:#7F76CF;" d="M66.98,315.66c-0.97-1.46-1.03-3.42-0.01-4.98c1.37-2.09,4.17-2.67,6.26-1.3l51.14,33.54 c2.09,1.37,2.67,4.17,1.3,6.26c-1.37,2.09-4.17,2.67-6.26,1.3l-51.14-33.54C67.74,316.6,67.31,316.16,66.98,315.66z"></path> <path style="fill:#51BECA;" d="M25.65,288.85c-0.98-1.48-1.03-3.45,0.02-5.01c1.39-2.08,4.2-2.63,6.28-1.24l17.27,11.57 c2.08,1.39,2.63,4.2,1.24,6.28c-1.39,2.08-4.2,2.63-6.28,1.24L26.9,290.11C26.39,289.76,25.97,289.33,25.65,288.85z"></path> </g> <path style="fill:#FFFFFF;" d="M173.18,145.89c1.35-1.18,3.42-1.04,4.6,0.31c1.69,1.94,2.53,4.42,2.36,6.98l-0.5,7.48 c-0.05,0.83,0.22,1.63,0.76,2.26c0.55,0.62,1.3,1,2.13,1.06l10.21,0.69c5.3,0.36,9.32,4.96,8.96,10.26l-0.61,9.12 c-0.06,0.83,0.21,1.63,0.76,2.25c0.2,0.23,0.43,0.43,0.69,0.59c0.43,0.27,0.92,0.43,1.45,0.47l10.21,0.69 c3.87,0.26,7.19,2.8,8.46,6.46c0.59,1.7-0.32,3.56-2.02,4.15c-0.3,0.1-0.61,0.16-0.91,0.18c-1.41,0.07-2.76-0.79-3.24-2.19 c-0.41-1.18-1.48-2-2.73-2.09l-10.21-0.69c-2.34-0.16-4.43-1.15-6.01-2.66c-1.99-1.91-3.15-4.64-2.95-7.6l0.61-9.12 c0.06-0.83-0.21-1.63-0.76-2.25c-0.55-0.62-1.3-1-2.13-1.06l-10.21-0.69c-2.57-0.17-4.91-1.33-6.61-3.27 c-1.14-1.31-1.91-2.89-2.22-4.59c-0.14-0.79-0.19-1.59-0.14-2.4l0.5-7.48c0.05-0.83-0.22-1.63-0.76-2.26 C171.68,149.14,171.82,147.08,173.18,145.89z"></path> <path style="fill:#FFFFFF;" d="M62.59,345.01c0.55,0.69,0.85,1.58,0.78,2.53c-0.14,2.02-1.89,3.53-3.91,3.39l-14.26-1.02 c-2.02-0.14-3.54-1.9-3.39-3.91c0.14-2.02,1.89-3.53,3.91-3.39l14.26,1.02C61.04,343.71,61.97,344.23,62.59,345.01z"></path> <path style="fill:#FFC969;" d="M49.52,212.89c-0.88-0.07-1.73-0.46-2.38-1.16c-1.37-1.48-1.29-3.8,0.2-5.17l10.49-9.72 c1.48-1.37,3.8-1.29,5.17,0.2c1.37,1.48,1.29,3.8-0.2,5.17l-10.49,9.72C51.53,212.65,50.51,212.97,49.52,212.89z"></path> <path style="fill:#7F76CF;" d="M50.16,371.6c-0.77-0.43-1.38-1.14-1.68-2.05c-0.63-1.92,0.42-3.99,2.34-4.62l13.59-4.45 c1.92-0.63,3.99,0.42,4.62,2.34c0.63,1.92-0.42,3.99-2.34,4.62l-13.59,4.45C52.08,372.22,51.02,372.09,50.16,371.6z"></path> <path style="fill:#FFC969;" d="M57.29,167.73c-0.36-0.8-0.44-1.74-0.14-2.65c0.63-1.92,2.69-2.97,4.62-2.34l13.59,4.44 c1.92,0.63,2.97,2.7,2.34,4.62c-0.63,1.92-2.69,2.97-4.62,2.34l-13.59-4.44C58.47,169.37,57.69,168.63,57.29,167.73z"></path> <path style="fill:#51BECA;" d="M409.92,83.18c-0.8-0.37-1.48-1.02-1.85-1.9c-0.79-1.86,0.08-4.01,1.94-4.8l13.16-5.59 c1.86-0.79,4.01,0.08,4.8,1.94c0.79,1.86-0.08,4.01-1.94,4.8l-13.16,5.59C411.89,83.64,410.82,83.59,409.92,83.18z"></path> <path style="fill:#FFFFFF;" d="M74.91,380.25c0.83-0.29,1.77-0.28,2.65,0.09c1.86,0.8,2.72,2.95,1.92,4.81l-5.64,13.13 c-0.8,1.86-2.95,2.72-4.81,1.92c-1.86-0.8-2.72-2.95-1.92-4.81l5.64-13.13C73.17,381.28,73.97,380.58,74.91,380.25z"></path> <path style="fill:#7F76CF;" d="M283.45,87.41c0-0.88,0.31-1.77,0.96-2.47c1.36-1.49,3.68-1.6,5.17-0.24l10.56,9.63 c1.49,1.36,1.6,3.68,0.24,5.17c-1.36,1.49-3.68,1.6-5.17,0.24l-10.56-9.63C283.86,89.39,283.45,88.41,283.45,87.41z"></path> <path style="fill:#383351;" d="M193.71,163.97c-0.65-0.19-1.33-0.31-2.03-0.36l-10.21-0.69c-0.83-0.06-1.59-0.43-2.13-1.06 c-0.55-0.62-0.82-1.43-0.76-2.26l0.5-7.48c0.17-2.57-0.66-5.05-2.36-6.98c-1.18-1.35-3.25-1.49-4.6-0.31 c-1.35,1.18-1.49,3.25-0.31,4.6c0.55,0.62,0.82,1.43,0.76,2.26l-0.5,7.48c-0.05,0.8-0.01,1.61,0.14,2.4 c0.26,1.42,0.85,2.77,1.71,3.94c2.45,0.05,4.56,0.12,6.26,0.16C185.16,165.78,189.61,165.16,193.71,163.97z"></path> <path style="fill:#383351;" d="M446.49,242.92c12.45-0.94,39.02-0.93,55.52,13.57c5.79,5.09,8.65,12.75,7.8,20.41l-4.91,44.24 l-59.96,14.33c0,0,0.84-64.31-3.46-85.94C440.83,246.26,443.17,243.17,446.49,242.92z"></path> <g> <path style="fill:#FFFFFF;" d="M168.11,421.95c11.83,5.08,25.96,13.71,40.57,28.32c16.83,16.83,30.69,31.75,45.28,42.4 c47.46,6.94,78.62,2.09,93.62-1.7c6.23-1.57,10.74-6.96,11.23-13.37l4.51-59.58c-12.29,8.28-28.3,16.05-52.88,18.99 C260.96,442.94,223.27,426.28,168.11,421.95z"></path> <path style="fill:#DCF2F4;" d="M363.86,379.72c-2.02-3.23-5.43-5.35-9.22-5.73c-9.71-0.97-153.77,5.51-222.13-48.28 c-4.62-3.64-11.58-1.33-14.57,3.73l0,0c-0.87,1.47-1.37,3.13-1.46,4.84l-4.73,88.38c3.35-0.11,6.78-0.27,10.33-0.5 c16.8-1.08,31.99-0.78,46.04,0.32c55.17,4.32,92.85,20.98,142.33,15.06c24.59-2.94,40.6-10.71,52.88-18.99l2.09-27.58l0.29-3.79 C365.9,384.56,365.25,381.95,363.86,379.72z"></path> </g> <path style="fill:#383351;" d="M176.17,387.52c-0.47,0-0.94-0.06-1.41-0.19c-17.86-4.92-28.46-9.08-28.9-9.25 c-2.73-1.08-4.06-4.16-2.99-6.88c1.08-2.73,4.16-4.06,6.88-2.99l0,0c0.1,0.04,10.57,4.14,27.83,8.9c2.83,0.78,4.48,3.7,3.71,6.53 C180.63,385.97,178.5,387.52,176.17,387.52z"></path> <path style="fill:#383351;" d="M253.24,425.51c-0.08,0-0.17,0-0.25-0.01c-65.87-3.12-110.56-17.79-112.43-18.42 c-2.78-0.93-4.28-3.93-3.36-6.71c0.93-2.78,3.93-4.28,6.71-3.36l0,0c0.45,0.15,45.27,14.84,109.58,17.88 c2.93,0.14,5.19,2.62,5.05,5.55C258.4,423.3,256.05,425.51,253.24,425.51z"></path> <path style="fill:#383351;" d="M278.62,459.52c-0.02,0-0.04,0-0.06,0c-69.39-0.82-133.64-21.98-134.28-22.19 c-2.78-0.93-4.28-3.93-3.36-6.71c0.93-2.78,3.93-4.28,6.71-3.36c0.63,0.21,63.38,20.85,131.05,21.65c2.93,0.03,5.28,2.44,5.24,5.37 C283.89,457.19,281.52,459.52,278.62,459.52z"></path> <path style="fill:#7F76CF;" d="M390.91,345.48c18.78-9.29,63.6-29.68,109.48-90.41c0,0,6.1,3.45,9.29,13.53 c3.64,11.54,9.55,79.06-10.61,109.84c-18.71,28.55-69.39,70.95-108.82,75.46c-4.78,0.55-8.95-3.25-8.91-8.07l0.65-86.1 C382.04,353.68,385.48,348.17,390.91,345.48z"></path> <path style="fill:#FFFFFF;" d="M410.99,413.46c-0.21,0-0.43-0.03-0.65-0.08c-1.42-0.36-2.29-1.8-1.93-3.22 c0.04-0.15,3.8-15.15,9.03-29.95c9.95-28.22,16.53-31.48,20.61-31.48c8.73,0,11.16,10.21,13.11,18.42c0.71,3,1.9,7.99,2.97,8.8 c0.02,0,0.04-0.01,0.06-0.02c0.05-0.02,1.25-0.47,2.6-5.38c1-3.65,1.74-8.5,2.46-13.19c1.85-12.09,3.45-22.54,9.94-22.95 c5.87-0.36,8.4,4.17,10.06,7.17c1.94,3.49,2.54,3.99,4.28,3.52c2.99-0.8,4.5-6.85,5.84-12.19c1.3-5.21,2.65-10.6,5.7-13.65 c1.04-1.04,2.72-1.04,3.75,0c1.04,1.04,1.04,2.72,0,3.75c-2.01,2.02-3.18,6.68-4.31,11.19c-1.77,7.09-3.61,14.43-9.62,16.03 c-6.02,1.61-8.58-3.02-10.28-6.07c-1.82-3.28-2.79-4.6-5.09-4.45c-0.01,0-1.13,0.34-2.41,4.72c-1.08,3.69-1.86,8.8-2.62,13.74 c-1.72,11.27-3.21,21-8.63,22.8c-1.49,0.5-2.96,0.38-4.25-0.33c-3.13-1.74-4.23-6.38-5.63-12.25c-1.93-8.12-3.74-14.34-7.94-14.34 c-0.59,0-6.02,0.78-15.59,27.91c-5.14,14.57-8.86,29.36-8.89,29.51C413.26,412.66,412.18,413.46,410.99,413.46z M454.06,375.96 L454.06,375.96L454.06,375.96z"></path> <ellipse transform="matrix(0.7164 -0.6977 0.6977 0.7164 -125.8292 403.2922)" style="fill:#E95540;" cx="433.15" cy="356.42" rx="6.54" ry="6.2"></ellipse> <ellipse transform="matrix(0.7164 -0.6977 0.6977 0.7164 -171.7064 401.8587)" style="fill:#E95540;" cx="408.45" cy="412.14" rx="6.54" ry="6.2"></ellipse> <ellipse transform="matrix(0.7164 -0.6977 0.6977 0.7164 -134.8631 424.5781)" style="fill:#E95540;" cx="454.82" cy="378.18" rx="6.54" ry="6.2"></ellipse> <ellipse transform="matrix(0.7164 -0.6977 0.6977 0.7164 -103.8966 437.0852)" style="fill:#E95540;" cx="485.68" cy="346.34" rx="6.54" ry="6.2"></ellipse> <path style="fill:#E95540;" d="M282.69,459.55c-1.37,0-2.75-0.01-4.14-0.02c-2.93-0.03-5.28-2.44-5.24-5.37 c0.03-2.93,2.45-5.27,5.37-5.24c11.02,0.13,21.72-0.27,31.8-1.2c2.92-0.27,5.5,1.88,5.77,4.8c0.27,2.92-1.88,5.5-4.8,5.77 C302.28,459.12,292.62,459.55,282.69,459.55z"></path> <path style="fill:#F8C7C4;" d="M276.84,426.07c-7.93,0-15.89-0.19-23.86-0.56c-2.93-0.14-5.19-2.62-5.05-5.55 c0.14-2.93,2.61-5.18,5.55-5.05c21.53,1.02,43.04,0.63,63.93-1.16c2.92-0.24,5.49,1.91,5.74,4.83c0.25,2.92-1.91,5.49-4.83,5.74 C304.7,425.49,290.82,426.07,276.84,426.07z"></path> <path style="fill:#7F76CF;" d="M286.02,402.96c-44.21,0-83.86-8.08-111.26-15.63c-2.83-0.78-4.48-3.7-3.71-6.52 c0.78-2.83,3.7-4.48,6.53-3.71c32.41,8.93,82.38,18.63,136.39,14.1c2.92-0.25,5.49,1.92,5.73,4.84s-1.92,5.49-4.84,5.73 C305.09,402.59,295.45,402.96,286.02,402.96z"></path> <g> <g> <path style="fill:#383351;" d="M188.7,125.46l-94.2,12.04c-1.73,0.22-3.55-0.97-4.08-2.65L72.05,76.03 c-0.53-1.69,0.45-3.23,2.17-3.45l94.2-12.04c1.73-0.22,3.55,0.97,4.08,2.65L190.87,122C191.39,123.69,190.42,125.24,188.7,125.46 z"></path> <path style="fill:#383351;" d="M232.77,125.21L98.48,142.37c-1.45,0.19-2.84-0.66-3.34-2.03l-2.24-6.14l130.23-16.65 c3.83-0.49,7.48,1.73,8.8,5.36L232.77,125.21z"></path> </g> <g> <polygon style="fill:#E7E6F6;" points="96.68,130.63 183.36,119.55 169.35,74.68 82.67,85.76 "></polygon> <polygon style="fill:#AC9FF9;" points="80.37,78.38 82.67,85.76 169.35,74.68 167.05,67.3 "></polygon> </g> <circle style="fill:#FFFFFF;" cx="85.07" cy="81.88" r="1.33"></circle> <circle style="fill:#FFFFFF;" cx="91.21" cy="81.1" r="1.33"></circle> <circle style="fill:#FFFFFF;" cx="97.35" cy="80.31" r="1.33"></circle> <g> <path style="fill:#7F76CF;" d="M127.11,103.92c-2.06-5.2-1.31-10.15,1.53-13.57c-3.54-1.65-7.43-2.39-11.13-1.92 c-9.08,1.16-13.62,9.22-10.14,18.01s13.67,14.96,22.75,13.8c3.7-0.47,6.65-2.09,8.6-4.44 C133.58,113.41,129.17,109.12,127.11,103.92z"></path> <path style="fill:#383351;" d="M137.24,85.91c-3.7,0.47-6.65,2.09-8.6,4.44c5.14,2.39,9.56,6.68,11.62,11.88 c2.06,5.2,1.31,10.15-1.53,13.57c3.54,1.65,7.43,2.39,11.13,1.92c9.08-1.16,13.62-9.22,10.14-18.01S146.32,84.75,137.24,85.91z"></path> <ellipse transform="matrix(0.9013 -0.4331 0.4331 0.9013 -31.4544 68.0673)" style="fill:#51BECA;" cx="133.68" cy="103.08" rx="6.37" ry="13.81"></ellipse> </g> </g> <g> <g> <path style="fill:#CC8350;" d="M256.05,345.54l-10.95-19.51c-0.82,4.25-3.58,13.6-12.36,19.65l8.98,12.07L256.05,345.54z"></path> <path style="fill:#8C583F;" d="M245.1,326.03l-1.26-2.24l-19.1,11.14l8,10.75C241.52,339.64,244.28,330.28,245.1,326.03z"></path> </g> <path style="fill:#FFC969;" d="M313.35,220.32c0,0-82.24,12.73-105.06,20.69l-17.16,4.5c-3.3,0.87-6.18,2.89-8.11,5.71l-0.8,1.16 c-2.03,2.96-3.11,6.47-3.11,10.06v11.95c0,7.96,2.56,15.71,7.29,22.11l29.48,39.83c1.52,2.05,4.11,3,6.59,2.41l5.14-1.22 c7.11-1.68,13.51-5.57,18.29-11.1l0.33-0.38c1.49-1.72,1.94-4.11,1.19-6.26l-9.93-28.36c0,0,48.82-2.65,53.06-3.71 c0,0-37.14,43.51-42.45,50.94c-4.11,5.76-37.98,49.32-53.79,67.92c-7.23,8.49-5.72,13.15-3.25,19.89l0.37,1 c2.27,6.21,7.39,10.94,13.75,12.72l3.66,1.94c8.6,2.41,16.07-2.41,20.98-9.87l6.08-9.23l37.63-38.54c2.44-2.5,4.52-5.31,6.19-8.38 l0.08-0.15c2.57-4.72,6.07-8.84,10.29-12.12c13.03-10.15,42.63-33.76,54.05-46.4c14.86-16.45,24.94-30.78,27.59-55.18 c2.65-24.41-3.71-33.43-3.71-33.43L313.35,220.32z"></path> <path style="fill:#FFFFFF;" d="M210.94,328.51c-0.22,0-0.42-0.15-0.47-0.38c-0.05-0.26,0.11-0.51,0.37-0.57 c0.23-0.05,23.04-4.96,33.29-16.86c0.17-0.2,0.47-0.22,0.67-0.05c0.2,0.17,0.22,0.47,0.05,0.67 c-10.47,12.15-33.59,17.12-33.82,17.17C211.01,328.51,210.98,328.51,210.94,328.51z"></path> <path style="fill:#FFFFFF;" d="M237.48,291.9c-0.13,0-13.47-0.04-26.12-3.2c-0.26-0.06-0.41-0.32-0.35-0.58 c0.06-0.26,0.32-0.41,0.58-0.35c12.53,3.13,25.75,3.17,25.88,3.17c0.26,0,0.48,0.21,0.48,0.48 C237.95,291.69,237.74,291.9,237.48,291.9z"></path> <path style="fill:#FFFFFF;" d="M285.76,293.49c-0.11,0-0.22-0.04-0.31-0.12c-0.2-0.17-0.22-0.47-0.05-0.67 c9.96-11.53,34.23-42.13,34.48-42.43c0.16-0.21,0.46-0.24,0.67-0.08c0.21,0.16,0.24,0.46,0.08,0.67 c-0.24,0.31-24.53,30.92-34.5,42.46C286.03,293.43,285.9,293.49,285.76,293.49z"></path> <path style="fill:#FFFFFF;" d="M233.23,424.55c-0.21,0-0.4-0.14-0.46-0.35c-3.25-11.92-9.77-19.59-19.38-22.79 c-7.18-2.39-13.49-1.25-13.56-1.24c-0.26,0.05-0.51-0.12-0.56-0.38c-0.05-0.26,0.12-0.51,0.38-0.56c0.27-0.05,6.59-1.2,13.99,1.26 c6.84,2.27,15.87,8.18,20.04,23.46c0.07,0.25-0.08,0.52-0.33,0.59C233.31,424.55,233.27,424.55,233.23,424.55z"></path> <g> <path style="fill:#E95540;" d="M211.94,442.52c3.49,0.26,6.64-0.65,8.84-2.85c2.25-2.25,3.15-5.48,2.83-9.07L211.94,442.52z"></path> <path style="fill:#E95540;" d="M191.89,410.79c-3.97,3.97-3.74,11.02-0.01,17.66l19.59-16.48 C204.32,407.14,196.25,406.43,191.89,410.79z"></path> </g> <g> <path style="fill:#CC8350;" d="M223.58,430.36c-8.52-7.35-24.79-7.46-24.79-7.46c-0.03-0.06-0.05-0.13-0.08-0.19l-6.83,5.74 l-1.1,0.93l12.73,21.76l8.43-8.61l11.67-11.92C223.6,430.52,223.59,430.44,223.58,430.36z"></path> <path style="fill:#8C583F;" d="M211.48,411.97l-12.77,10.73c0.03,0.06,0.05,0.13,0.08,0.19c0,0,16.27,0.12,24.79,7.46 c-0.5-4.8-3.14-10.2-7.66-14.71C214.52,414.24,213.02,413.01,211.48,411.97z"></path> </g> <g> <path style="fill:#F6FCFC;" d="M201.8,439c0,0,1.19-10.15-3.05-12.27c-1.95-0.97-3.56-0.94-4.73-0.62 c-1.74,0.47-3.6,0.28-5.14-0.66l-9.23-5.62c0,0-3.71-3.18-14.33-6.37c-4.4-1.32-7.8-1.36-10.04-0.39 c6.13,1.5,15.46,7.44,24.51,16.05c13.05,12.42,20.56,25.71,16.78,29.68c-0.18,0.19-0.39,0.35-0.62,0.49 c0.64-0.2,1.25-0.51,1.78-0.94c2.37-1.91,6.55-5.57,7.08-8.03C205.55,446.86,201.8,439,201.8,439z"></path> <path style="fill:#51BECA;" d="M179.78,429.13c-9.05-8.62-18.38-14.55-24.51-16.05c-3.16,1.37-4.03,4.75-2.16,9.41 c3.18,7.96,5.84,9.55,19.63,23.88c9.66,10.03,17.23,12.52,20.91,13.11c0.77,0.12,1.55,0.06,2.29-0.17 c0.23-0.14,0.44-0.3,0.62-0.49C200.34,454.84,192.83,441.55,179.78,429.13z"></path> </g> <path style="fill:#FFFFFF;" d="M247.83,243.19c-2.67,0-5.05-1.67-5.95-4.24l-2.2-6.28c-0.09-0.25,0.04-0.52,0.29-0.61 c0.25-0.09,0.52,0.04,0.61,0.29l2.2,6.28c0.83,2.37,3.15,3.84,5.65,3.57c5.69-0.62,13.93-1.71,20.91-3.39 c2.72-0.66,4.48-3.23,4.09-5.99l-0.87-6.08c-0.04-0.26,0.14-0.5,0.4-0.54c0.26-0.04,0.5,0.14,0.54,0.4l0.87,6.08 c0.46,3.25-1.6,6.28-4.81,7.05c-7.03,1.69-15.32,2.79-21.03,3.41C248.29,243.18,248.06,243.19,247.83,243.19z"></path> <path style="fill:#FFFFFF;" d="M264.15,240.82c-0.21,0-0.4-0.14-0.46-0.35l-3-11.19c-0.07-0.25,0.08-0.52,0.34-0.58 c0.26-0.07,0.52,0.08,0.58,0.34l3,11.19c0.07,0.25-0.08,0.52-0.34,0.58C264.23,240.81,264.19,240.82,264.15,240.82z"></path> <path style="fill:#FFFFFF;" d="M366.94,279.69c-2.75,0-4.69-0.68-5.93-2.06c-2.2-2.46-1.74-6.6-1.25-10.98 c0.13-1.12,0.26-2.28,0.34-3.39c0.52-7.3-0.52-17.33-0.53-17.43c-0.01-0.13,0.03-0.26,0.11-0.36c0.09-0.1,0.21-0.16,0.34-0.17 l10.08-0.53c0.26-0.02,0.49,0.19,0.5,0.45c0.01,0.26-0.19,0.49-0.45,0.5l-9.58,0.5c0.2,2.13,0.94,10.65,0.48,17.09 c-0.08,1.13-0.21,2.3-0.34,3.43c-0.47,4.16-0.91,8.09,1.01,10.23c1.05,1.18,2.76,1.75,5.22,1.75c0.26,0,0.48,0.21,0.48,0.48 C367.42,279.48,367.21,279.69,366.94,279.69z"></path> </g> <g> <path style="fill:#CC8350;" d="M165.82,86.66c2.7,0.27,15.51,1.54,20.72,1.54l3.71,0.53l4.24,2.65c0,0,12.73,5.31,16.45,10.61 c3.71,5.31,0,11.14,0,11.14h-11.67l-2.12-0.53c0,0-5.31,3.18-12.73-2.65l-6.37-0.53l-6.55-3.75c-0.55-0.31-0.92-0.87-1-1.5 l-0.28-2.27c-0.08-0.62,0.13-1.23,0.57-1.67l0.31-0.31c0.38-0.38,0.59-0.89,0.59-1.42l0,0c0-0.79,0.46-1.5,1.17-1.83l5.73-2.64 l-7.21-0.96c-0.5-0.07-0.99-0.17-1.47-0.32l-3.91-1.17c-0.43-0.13-0.8-0.42-1.02-0.81l-0.85-1.49c-0.5-0.88-0.16-2,0.74-2.45l0,0 C165.15,86.69,165.49,86.62,165.82,86.66z"></path> <path style="fill:#8C583F;" d="M198.74,109.9c-0.03,0-0.06,0-0.09-0.01c-4.94-0.99-7.62-6.22-8.19-7.46l-5.98-0.8 c-1.23-0.16-2.19-1.13-2.34-2.36c-0.1-0.77,0.14-1.56,0.66-2.14c0.52-0.59,1.26-0.92,2.04-0.92h3.82l8.46-0.53 c0.27-0.02,0.49,0.18,0.51,0.45c0.02,0.26-0.18,0.49-0.45,0.51l-8.49,0.53l-3.85,0c-0.51,0-0.99,0.22-1.33,0.6 c-0.34,0.38-0.49,0.89-0.43,1.39c0.1,0.8,0.73,1.43,1.52,1.53l6.24,0.83c0.17,0.02,0.31,0.13,0.38,0.29 c0.03,0.06,2.62,6.15,7.61,7.14c0.26,0.05,0.43,0.3,0.37,0.56C199.16,109.74,198.96,109.9,198.74,109.9z"></path> <path style="fill:#8C583F;" d="M186.01,104.06h-1.58c-1.16,0-2.25-0.56-2.93-1.51l-4.37-6.12c-0.15-0.21-0.1-0.51,0.11-0.67 c0.21-0.15,0.51-0.1,0.67,0.11l4.37,6.12c0.49,0.69,1.3,1.11,2.15,1.11h1.58c0.26,0,0.48,0.21,0.48,0.48 S186.27,104.06,186.01,104.06z"></path> <path style="fill:#8C583F;" d="M180.17,106.72c-0.11,0-0.23-0.04-0.31-0.12l-7.96-6.9c-0.2-0.17-0.22-0.47-0.05-0.67 c0.17-0.2,0.47-0.22,0.67-0.05l7.8,6.76l4.03-0.5c0.26-0.03,0.5,0.15,0.53,0.41c0.03,0.26-0.15,0.5-0.41,0.53l-4.24,0.53 C180.21,106.71,180.19,106.72,180.17,106.72z"></path> <path style="fill:#8C583F;" d="M176.74,109.1c-0.25,0-0.46-0.19-0.48-0.44c-0.02-0.26,0.18-0.49,0.44-0.51l3.43-0.27 c0.27-0.02,0.49,0.18,0.51,0.44c0.02,0.26-0.18,0.49-0.44,0.51l-3.43,0.27C176.76,109.1,176.75,109.1,176.74,109.1z"></path> <g> <path style="fill:#CC8350;" d="M257.11,135.42c0,0-37.67-28.12-46.16-33.43l-11.67,11.14c0,0,40.86,48.29,48.29,50.41 c5.99,1.71,35.06,3.08,46.12,3.54c-1.45-8.58-3.53-29.56-4.07-35.09L257.11,135.42z"></path> <path style="fill:#8C583F;" d="M297.43,131.18l-7.83,0.82c0.54,5.52,2.62,26.5,4.07,35.09c2.66,0.11,4.29,0.17,4.29,0.17 L297.43,131.18z"></path> </g> </g> <path style="fill:#3A363F;" d="M342.01,126.93c0,0-9.55-2.12-13.27-1.59s-17.51,2.12-21.76,1.06c-2.41-0.6-6.36-0.86-9.32-0.98 c-3.24-0.12-6.02,2.42-6.06,5.66c0,0.03,0,0.06,0,0.1c0,3.18,3.71,35.55,3.71,35.55s-0.53,40.86,7.43,53.59v2.65 c0,0,44.04,12.73,54.65,11.67c10.61-1.06,13.27,0.53,13.27,0.53l2.02-6.39c0.75-2.39,0.64-4.96-0.31-7.28l0,0 c-1.43-3.48-1.52-7.36-0.24-10.9c3.41-9.43,10.09-28.47,11.27-35.92c1.59-10.08,5.84-32.9-8.49-40.86s-33.43-6.9-33.43-6.9"></path> <g> <path style="fill:#51BECA;" d="M306.28,134.53c-0.27-0.12-0.49-0.34-0.62-0.63c-0.26-0.62,0.03-1.34,0.65-1.6l4.39-1.86 c0.62-0.26,1.34,0.03,1.6,0.65c0.26,0.62-0.03,1.34-0.65,1.6l-4.39,1.86C306.93,134.69,306.58,134.67,306.28,134.53z"></path> <path style="fill:#51BECA;" d="M329.4,154.25c0,0.29-0.1,0.59-0.32,0.83c-0.45,0.5-1.23,0.54-1.73,0.08l-3.53-3.21 c-0.5-0.45-0.54-1.23-0.08-1.73c0.45-0.5,1.23-0.54,1.73-0.08l3.53,3.21C329.27,153.59,329.4,153.92,329.4,154.25z"></path> <path style="fill:#51BECA;" d="M305.05,165.82c-0.29,0.03-0.6-0.04-0.85-0.23c-0.55-0.4-0.67-1.16-0.27-1.71l2.81-3.86 c0.4-0.55,1.16-0.67,1.71-0.27c0.55,0.4,0.67,1.16,0.27,1.71l-2.81,3.86C305.69,165.62,305.38,165.79,305.05,165.82z"></path> <path style="fill:#51BECA;" d="M321.43,184.99c-0.29,0.03-0.6-0.04-0.85-0.23c-0.55-0.4-0.67-1.16-0.27-1.71l2.81-3.86 c0.4-0.55,1.16-0.67,1.71-0.27c0.55,0.4,0.67,1.16,0.27,1.71l-2.81,3.86C322.07,184.79,321.76,184.96,321.43,184.99z"></path> <path style="fill:#51BECA;" d="M349.55,149.44c-0.29,0.03-0.6-0.04-0.85-0.23c-0.55-0.4-0.67-1.16-0.27-1.71l2.81-3.86 c0.4-0.55,1.16-0.67,1.71-0.27c0.55,0.4,0.67,1.16,0.27,1.71l-2.81,3.86C350.2,149.24,349.88,149.41,349.55,149.44z"></path> <path style="fill:#51BECA;" d="M371.06,154.15c-0.04,0.29-0.19,0.57-0.43,0.77c-0.52,0.43-1.29,0.35-1.72-0.17l-3.03-3.68 c-0.43-0.52-0.35-1.29,0.17-1.72c0.52-0.43,1.29-0.35,1.72,0.17l3.03,3.68C371.02,153.48,371.1,153.82,371.06,154.15z"></path> <path style="fill:#51BECA;" d="M370.31,172.75c-0.09-0.28-0.08-0.59,0.05-0.88c0.28-0.61,1-0.88,1.62-0.61l4.34,1.98 c0.61,0.28,0.89,1,0.61,1.62c-0.28,0.61-1,0.88-1.62,0.61l-4.34-1.98C370.64,173.34,370.41,173.06,370.31,172.75z"></path> <path style="fill:#51BECA;" d="M356.45,228.52c-0.29,0.03-0.6-0.04-0.85-0.23c-0.55-0.4-0.67-1.16-0.27-1.71l2.81-3.86 c0.4-0.55,1.16-0.67,1.71-0.27c0.55,0.4,0.67,1.16,0.27,1.71l-2.81,3.86C357.09,228.31,356.78,228.48,356.45,228.52z"></path> <path style="fill:#51BECA;" d="M370.15,209.25c-0.09,0.28-0.28,0.53-0.56,0.69c-0.59,0.34-1.33,0.13-1.67-0.45l-2.37-4.14 c-0.34-0.59-0.13-1.33,0.45-1.67c0.59-0.34,1.33-0.13,1.67,0.45l2.37,4.14C370.23,208.58,370.25,208.93,370.15,209.25z"></path> <path style="fill:#51BECA;" d="M301.8,194.54c-0.29,0.03-0.6-0.04-0.85-0.23c-0.55-0.4-0.67-1.16-0.27-1.71l2.81-3.86 c0.4-0.55,1.16-0.67,1.71-0.27c0.55,0.4,0.67,1.16,0.27,1.71l-2.81,3.86C302.44,194.34,302.13,194.51,301.8,194.54z"></path> <g> <path style="fill:#51BECA;" d="M358.22,212.38c0,0.29-0.1,0.59-0.32,0.83c-0.45,0.5-1.23,0.54-1.73,0.08l-3.53-3.21 c-0.5-0.45-0.54-1.23-0.08-1.73c0.45-0.5,1.23-0.54,1.73-0.08l3.53,3.21C358.09,211.72,358.22,212.05,358.22,212.38z"></path> <path style="fill:#51BECA;" d="M341.76,177.33c-0.29,0.03-0.6-0.04-0.85-0.23c-0.55-0.4-0.67-1.16-0.27-1.71l2.81-3.86 c0.4-0.55,1.16-0.67,1.71-0.27c0.55,0.4,0.67,1.16,0.27,1.71l-2.81,3.86C342.4,177.12,342.09,177.29,341.76,177.33z"></path> <path style="fill:#51BECA;" d="M322.56,206.35c-0.09,0.28-0.28,0.53-0.56,0.69c-0.59,0.34-1.33,0.13-1.67-0.45l-2.37-4.14 c-0.34-0.59-0.13-1.33,0.45-1.67c0.59-0.34,1.33-0.13,1.67,0.45l2.37,4.14C322.64,205.68,322.66,206.04,322.56,206.35z"></path> </g> </g> <path style="fill:#383351;" d="M324.5,75.46c0,0-9.02-3.18-8.49-11.14s7.43-19.1,19.63-16.45c12.2,2.65,29.18,10.08,35.55,12.2 c6.37,2.12,11.67,4.78,11.67,15.39s-4.24,17.51-1.59,22.29c2.65,4.78,12.73,21.22-11.67,23.88c-24.41,2.65-29.18-9.02-20.16-18.57 S324.5,75.46,324.5,75.46z"></path> <path style="fill:#CC8350;" d="M359.52,110.48l-25.41,5.73c-6.08,1.37-11.74-3.56-11.23-9.77l1.35-16.27 c0.18-2.02,0.29-4.04,0.34-6.07l0.15-6.12c0.17-7.01,5.9-12.6,12.91-12.6l21.89,0.53l-6.9,22.98L359.52,110.48z"></path> <path style="fill:#CC8350;" d="M326.09,86.61c0,0-3.34,5.01-5.57,6.88c-0.5,0.42-0.79,1.03-0.79,1.69v0c0,0.65,0.29,1.27,0.79,1.69 c0.81,0.67,2.13,1.61,3.45,1.94C326.09,99.34,326.09,86.61,326.09,86.61z"></path> <path style="fill:#383351;" d="M335.11,74.88c-0.14,0-0.27-0.06-0.37-0.17c-1.2-1.44-2.1-1.78-2.65-1.81 c-0.58-0.04-0.88,0.25-0.89,0.26c-0.19,0.18-0.49,0.17-0.67-0.01c-0.18-0.19-0.18-0.48,0-0.67c0.06-0.06,0.6-0.58,1.58-0.54 c1.08,0.05,2.22,0.78,3.37,2.16c0.17,0.2,0.14,0.5-0.06,0.67C335.32,74.84,335.22,74.88,335.11,74.88z"></path> <path style="fill:#CC8350;" d="M323.97,99.87l-0.88,0.22c-0.8,0.2-1.24,1.06-0.93,1.82c0.28,0.7,0.81,1.42,1.81,1.68 C326.09,104.12,323.97,99.87,323.97,99.87z"></path> <path style="fill:#FFFFFF;" d="M325.18,102.1c0.94-0.55,2.75-1.51,4.69-2.02c0.55-0.14,1.11,0.26,1.15,0.83 c0.09,1.33-0.1,3.54-2.27,4.26c-2.2,0.73-3.39-0.82-3.91-1.84C324.6,102.89,324.75,102.36,325.18,102.1z"></path> <path style="fill:#FFFFFF;" d="M326.09,86.26h-2.12c-0.4,0-0.72-0.32-0.72-0.72s0.32-0.72,0.72-0.72h2.12 c0.4,0,0.72,0.32,0.72,0.72S326.48,86.26,326.09,86.26z"></path> <path style="fill:#FFFFFF;" d="M330.99,94.73c-0.14,0-0.27-0.01-0.41-0.02c-3.31-0.31-5.63-4.44-5.18-9.2 c0.21-2.26,1.01-4.33,2.23-5.84c1.29-1.59,2.92-2.39,4.58-2.23c1.66,0.16,3.11,1.24,4.08,3.05c0.92,1.71,1.31,3.9,1.1,6.16 s-1.01,4.33-2.23,5.84C333.97,93.94,332.5,94.73,330.99,94.73z M331.8,78.85c-1.08,0-2.15,0.6-3.06,1.72 c-1.05,1.29-1.73,3.1-1.92,5.07c-0.38,3.98,1.37,7.4,3.89,7.64c1.16,0.11,2.35-0.5,3.33-1.71c1.05-1.29,1.73-3.1,1.92-5.07 c0.19-1.98-0.15-3.87-0.94-5.34c-0.74-1.37-1.79-2.19-2.95-2.3C331.98,78.86,331.89,78.85,331.8,78.85z"></path> <path style="fill:#FFFFFF;" d="M349.97,87.32c-0.03,0-0.06,0-0.09-0.01l-13.26-1.59c-0.39-0.05-0.67-0.4-0.63-0.8 c0.05-0.39,0.4-0.67,0.8-0.63l13.26,1.59c0.39,0.05,0.67,0.4,0.63,0.8C350.63,87.05,350.32,87.32,349.97,87.32z"></path> <path style="fill:#CC8350;" d="M336.17,113.14c0,0-4.24,10.6-7.79,15.88c-1.29,1.91-2.07,4.14-2.07,6.45 c0,3.14,1.31,6.62,7.21,6.32c10.19-0.51,16.45-4.24,19.1-6.9s7.43-6.37,7.43-6.37s-1.59-3.71-1.06-7.43 C359.52,117.38,340.41,109.42,336.17,113.14z"></path> <path style="fill:#89563F;" d="M341.31,114.74c0,0-5.67,7.94-10.45,10.07l4.17-8.91L341.31,114.74z"></path> <path style="fill:#383351;" d="M380.48,90.59l-29.52,6.63c0.77,2.16,0.57,4.21-1.09,5.96c-9.02,9.55-4.24,21.22,20.16,18.57 s14.33-19.1,11.67-23.88C380.63,95.94,380.03,93.33,380.48,90.59z"></path> <path style="fill:#CC8350;" d="M348.64,104.38l-0.53-1.59l0.27-15.12h6.94c3.23,0,5.6,3.02,4.85,6.15v0 c-0.82,3.44-4.12,5.57-7.28,6.32C350.98,100.59,350.27,103.3,348.64,104.38z"></path> <path style="fill:#383351;" d="M325,75.52c0,0,3.74-8.54,9.57-8.01c5.84,0.53,5.31,5.84,5.84,8.49s1.06,6.9,5.84,8.49 c0,0-2.71,3.21-1.48,8.67c0.08,0.36-0.04,0.74-0.34,0.96c-1.25,0.92-4.17,3.51-0.3,5.23c3.32,1.48,3.82-1.42,3.81-3.31 c0-0.91,0.44-1.76,1.16-2.33c1.45-1.14,3.69-3.38,4.05-6.56l11.67,1.06l1.59-26l-39.27-2.65C327.15,59.54,321.8,71.32,325,75.52z"></path> <path style="fill:#89563F;" d="M352.09,96.1c-0.15,0-0.29-0.07-0.38-0.19c-0.16-0.21-0.12-0.51,0.1-0.67l4.24-3.18 c0.21-0.16,0.51-0.12,0.67,0.1c0.16,0.21,0.12,0.51-0.1,0.67l-4.24,3.18C352.29,96.07,352.19,96.1,352.09,96.1z"></path> <path style="fill:#383351;" d="M389.39,68.83c-5.2,0.53-5.37-3.52-7.85-5.31c-1.6-1.16-3.47-2.18-4.46-3.9 c-0.99-1.72-1.14-3.78-0.42-5.63c2.08-5.3,6.24-8.39,11.46-8.51c2.84-0.06,5.37,2.19,5.41,5.03c0.02,1.46-0.57,2.77-1.53,3.72 c-0.6,0.59-0.66,1.51-0.11,2.15c1.29,1.49,2.41,3.73,2.6,7.04C394.67,66.35,392.32,68.84,389.39,68.83z"></path> <path d="M329.8,86.87c-0.44,0-0.8-0.36-0.8-0.8v-1.59c0-0.44,0.36-0.8,0.8-0.8c0.44,0,0.8,0.36,0.8,0.8v1.59 C330.6,86.51,330.24,86.87,329.8,86.87z"></path> <g> <path style="fill:#E6E4F6;" d="M231.36,123.62l18.43,59.76c0.25,0.83,1.02,1.39,1.88,1.39h41.09c1.29,0,2.24-1.22,1.9-2.47 l-15.93-60.25c-0.23-0.87-1.02-1.48-1.93-1.47l-43.58,0.48C231.9,121.08,230.97,122.36,231.36,123.62z"></path> <ellipse transform="matrix(0.7696 -0.6385 0.6385 0.7696 -20.829 200.9162)" style="fill:#FFFFFF;" cx="267.99" cy="129.32" rx="2.16" ry="2.63"></ellipse> </g> <g> <path style="fill:#CC8350;" d="M363.76,192.73c-0.45-5.39-10.03-19.92-12.95-24.24c-2.46,3.35-7.98,10.68-11.98,14.69 c-5.31,5.31-19.63,22.82-19.63,22.82c-4.24-5.84-32.37-27.59-32.37-27.59l-13.27,7.43l2.65,6.37c0,0,20.69,51.47,46.16,48.82 c13.45-1.4,29.75-21.98,40.23-37.48C363.08,201.98,364.18,197.76,363.76,192.73z"></path> <path style="fill:#8C583F;" d="M352.09,166.73c0,0-0.48,0.67-1.28,1.76c2.92,4.32,12.51,18.84,12.95,24.24 c0.42,5.03-0.68,9.26-1.16,10.81c6.46-9.55,10.71-17.18,10.71-17.18C366.94,174.69,352.09,166.73,352.09,166.73z"></path> </g> <path style="fill:#8C583F;" d="M324.5,213.9c-0.2,0-0.39-0.13-0.45-0.33c-1.01-3.04-5.15-7.2-5.19-7.24 c-0.19-0.19-0.19-0.49,0-0.67c0.19-0.19,0.49-0.19,0.67,0c0.18,0.18,4.34,4.36,5.42,7.62c0.08,0.25-0.05,0.52-0.3,0.6 C324.6,213.89,324.55,213.9,324.5,213.9z"></path> <path d="M350.5,165.08c-0.09,0-0.18-0.03-0.26-0.08c-0.22-0.15-0.28-0.44-0.13-0.66c0.06-0.1,6.38-9.59,8.98-15.32 c1.83-4.03,8.65-13.18,13.89-10.85c0.24,0.11,0.35,0.39,0.24,0.63c-0.11,0.24-0.39,0.35-0.63,0.24 c-4.35-1.93-10.83,6.4-12.64,10.37c-2.64,5.8-8.99,15.36-9.06,15.45C350.8,165.01,350.65,165.08,350.5,165.08z"></path> <path style="fill:#CC8350;" d="M286.82,178.4l0.21-4.64c0.21-4.61-0.8-9.19-2.92-13.28l-3.63-7.01c-0.34-0.66-1.02-1.07-1.76-1.07 l0,0c-1.09,0-1.98,0.89-1.98,1.98v3.86l-4.78-6.9l-3.3-7.42c-0.54-1.22-1.91-1.86-3.2-1.49h0c-0.91,0.26-1.62,0.98-1.86,1.89 l-1.61,6.02c-0.08,0.31-0.12,0.63-0.12,0.95v4.82l-0.83,2.48c-0.5,1.5-0.6,3.11-0.29,4.67l1.74,8.7c0.29,1.45,0.85,2.83,1.65,4.07 l2.24,3.48c0.88,1.37,2,2.56,3.31,3.53l8.1,5.97l9.02-4.78V178.4z"></path> <path style="fill:#8C583F;" d="M268.78,159.25c-0.17,0-0.33-0.09-0.42-0.25l-2.78-5.16c-0.64-1.2-1.08-2.48-1.31-3.82l-1-6.05 c-0.04-0.26,0.13-0.51,0.39-0.55c0.26-0.04,0.51,0.13,0.55,0.39l1,6.05c0.21,1.24,0.61,2.42,1.2,3.53l2.78,5.16 c0.12,0.23,0.04,0.52-0.19,0.65C268.94,159.23,268.86,159.25,268.78,159.25z"></path> <path style="fill:#8C583F;" d="M266.13,165.08c-0.17,0-0.33-0.09-0.42-0.25l-2.07-3.73c-0.41-0.74-0.69-1.54-0.83-2.37l-1.32-8.03 c-0.04-0.26,0.13-0.51,0.39-0.55c0.26-0.04,0.51,0.13,0.55,0.39l1.32,8.03c0.12,0.73,0.36,1.42,0.72,2.06l2.07,3.73 c0.13,0.23,0.04,0.52-0.19,0.65C266.29,165.06,266.21,165.08,266.13,165.08z"></path> <path style="fill:#8C583F;" d="M263.48,168.8c-0.19,0-0.37-0.11-0.44-0.3l-1.06-2.65c-0.01-0.02-0.02-0.05-0.02-0.07l-1.59-6.9 c-0.06-0.26,0.1-0.51,0.36-0.57c0.26-0.06,0.51,0.1,0.57,0.36l1.58,6.86l1.05,2.62c0.1,0.24-0.02,0.52-0.27,0.62 C263.59,168.79,263.53,168.8,263.48,168.8z"></path> <path style="fill:#8C583F;" d="M280.45,167.21c-0.23,0-0.43-0.17-0.47-0.4l-0.27-1.64c-0.16-0.96-0.5-1.88-1-2.72l-2.38-3.97 c-0.14-0.23-0.06-0.52,0.16-0.65c0.23-0.14,0.52-0.06,0.65,0.16l2.38,3.97c0.56,0.94,0.94,1.97,1.12,3.05l0.27,1.64 c0.04,0.26-0.13,0.51-0.39,0.55C280.51,167.2,280.48,167.21,280.45,167.21z"></path> </g> </svg> 